<?xml version="1.0" encoding="UTF-8" standalone="no"?>
<svg
   xmlns:dc="http://purl.org/dc/elements/1.1/"
   xmlns:cc="http://creativecommons.org/ns#"
   xmlns:rdf="http://www.w3.org/1999/02/22-rdf-syntax-ns#"
   xmlns:svg="http://www.w3.org/2000/svg"
   xmlns="http://www.w3.org/2000/svg"
   id="svg945"
   version="1.1"
   viewBox="0 0 54.99604 3.99769"
   height="3.99769mm"
   width="54.99604mm">
  <defs
     id="defs939" />
  <metadata
     id="metadata942">
    <rdf:RDF>
      <cc:Work
         rdf:about="">
        <dc:format>image/svg+xml</dc:format>
        <dc:type
           rdf:resource="http://purl.org/dc/dcmitype/StillImage" />
        <dc:title></dc:title>
      </cc:Work>
    </rdf:RDF>
  </metadata>
  <g
     transform="translate(-13.066345,-17.455284)"
     id="layer1">
    <g
       style="font-style:normal;font-weight:normal;font-size:4.23333px;line-height:1.25;font-family:sans-serif;fill:#ffffff;fill-opacity:1;stroke:none;stroke-width:0.264583"
       id="text1510"
       aria-label="">
      <path
         id="path1512"
         style="font-style:normal;font-variant:normal;font-weight:bold;font-stretch:normal;font-size:4.23333px;font-family:Helvetica;-inkscape-font-specification:'Helvetica Bold';fill:#ffffff;stroke-width:0.264583"
         d="m 15.594314,18.228363 q 0.148828,0 0.293522,0.05788 0.144693,0.05788 0.262516,0.202571 0.09508,0.117822 0.128157,0.289388 0.02067,0.113688 0.02067,0.332796 l -0.0041,1.420067 h -0.60358 v -1.434536 q 0,-0.128158 -0.04134,-0.21084 -0.07855,-0.157096 -0.289388,-0.157096 -0.243912,0 -0.33693,0.202571 -0.04754,0.107487 -0.04754,0.258382 v 1.341519 h -0.593245 v -1.341519 q 0,-0.200504 -0.04134,-0.291455 -0.07441,-0.163297 -0.291455,-0.163297 -0.252181,0 -0.338997,0.163297 -0.04754,0.09302 -0.04754,0.276986 v 1.355988 h -0.597379 v -2.248956 h 0.572574 v 0.328661 q 0.109554,-0.175699 0.206706,-0.250113 0.171565,-0.132292 0.444417,-0.132292 0.258382,0 0.417545,0.113688 0.128157,0.10542 0.194303,0.270785 0.115755,-0.198438 0.287321,-0.291455 0.181901,-0.09302 0.405143,-0.09302 z" />
      <path
         id="path1514"
         style="font-style:normal;font-variant:normal;font-weight:bold;font-stretch:normal;font-size:4.23333px;font-family:Helvetica;-inkscape-font-specification:'Helvetica Bold';fill:#ffffff;stroke-width:0.264583"
         d="m 18.080981,19.435524 q -0.05581,0.03514 -0.113688,0.05788 -0.05581,0.02067 -0.155029,0.03927 l -0.132291,0.02481 q -0.186035,0.03307 -0.266651,0.08061 -0.136425,0.08062 -0.136425,0.250114 0,0.150895 0.08268,0.219108 0.08475,0.06615 0.204639,0.06615 0.190169,0 0.349332,-0.111621 0.16123,-0.111621 0.167431,-0.407209 z m -0.3576,-0.274919 q 0.163297,-0.02067 0.233577,-0.05168 0.12609,-0.05374 0.12609,-0.167432 0,-0.138492 -0.09715,-0.190169 -0.09509,-0.05374 -0.28112,-0.05374 -0.208772,0 -0.295589,0.103353 -0.06201,0.07648 -0.08268,0.206705 h -0.56844 q 0.0186,-0.295589 0.165364,-0.485758 0.233578,-0.297656 0.802018,-0.297656 0.370003,0 0.657324,0.146761 0.28732,0.146761 0.28732,0.553971 v 1.033528 q 0,0.107487 0.0041,0.260449 0.0062,0.115755 0.03514,0.157096 0.02894,0.04134 0.08682,0.06821 v 0.08682 h -0.640788 q -0.02687,-0.06821 -0.03721,-0.128157 -0.01034,-0.05995 -0.01654,-0.136426 -0.121956,0.132292 -0.28112,0.225309 -0.190169,0.109554 -0.429947,0.109554 -0.305924,0 -0.506429,-0.173633 -0.198437,-0.175699 -0.198437,-0.496093 0,-0.415478 0.320394,-0.601513 0.175699,-0.101286 0.516763,-0.144694 z m 0.03101,-0.942577 z" />
      <path
         id="path1516"
         style="font-style:normal;font-variant:normal;font-weight:bold;font-stretch:normal;font-size:4.23333px;font-family:Helvetica;-inkscape-font-specification:'Helvetica Bold';fill:#ffffff;stroke-width:0.264583"
         d="m 20.418821,18.224229 q 0.01654,0 0.02687,0.0021 0.0124,0 0.05168,0.0021 v 0.60358 q -0.05581,-0.0062 -0.09922,-0.0083 -0.04341,-0.0021 -0.07028,-0.0021 -0.355534,0 -0.47749,0.23151 -0.06821,0.130225 -0.06821,0.401009 v 1.076936 h -0.593245 v -2.25309 h 0.562239 v 0.39274 q 0.136426,-0.225309 0.237712,-0.307991 0.165364,-0.138493 0.429947,-0.138493 z" />
      <path
         id="path1518"
         style="font-style:normal;font-variant:normal;font-weight:bold;font-stretch:normal;font-size:4.23333px;font-family:Helvetica;-inkscape-font-specification:'Helvetica Bold';fill:#ffffff;stroke-width:0.264583"
         d="m 22.186154,19.086191 q -0.01654,-0.12609 -0.08475,-0.227376 -0.09922,-0.136426 -0.307992,-0.136426 -0.297656,0 -0.40721,0.295589 -0.05788,0.157097 -0.05788,0.417546 0,0.248046 0.05788,0.398941 0.10542,0.28112 0.396875,0.28112 0.206706,0 0.293522,-0.111621 0.08682,-0.111621 0.10542,-0.289388 h 0.601513 q -0.02067,0.268717 -0.194303,0.508496 -0.276986,0.386539 -0.820621,0.386539 -0.543636,0 -0.799951,-0.32246 -0.256315,-0.322461 -0.256315,-0.837158 0,-0.580843 0.283187,-0.903303 0.283186,-0.322461 0.781347,-0.322461 0.423746,0 0.692463,0.190169 0.270785,0.190169 0.320394,0.671793 z m -0.398942,-0.868163 z" />
      <path
         id="path1520"
         style="font-style:normal;font-variant:normal;font-weight:bold;font-stretch:normal;font-size:4.23333px;font-family:Helvetica;-inkscape-font-specification:'Helvetica Bold';fill:#ffffff;stroke-width:0.264583"
         d="m 24.360696,17.455284 h 1.037662 v 0.429948 h -0.479557 v 3.028236 h 0.479557 v 0.432015 h -1.037662 z" />
      <path
         id="path1522"
         style="font-style:normal;font-variant:normal;font-weight:bold;font-stretch:normal;font-size:4.23333px;font-family:Helvetica;-inkscape-font-specification:'Helvetica Bold';fill:#ffffff;stroke-width:0.264583"
         d="m 27.027198,19.435524 q -0.05581,0.03514 -0.113688,0.05788 -0.05581,0.02067 -0.155029,0.03927 l -0.132292,0.02481 q -0.186035,0.03307 -0.26665,0.08061 -0.136426,0.08062 -0.136426,0.250114 0,0.150895 0.08268,0.219108 0.08475,0.06615 0.204638,0.06615 0.190169,0 0.349333,-0.111621 0.16123,-0.111621 0.167431,-0.407209 z m -0.357601,-0.274919 q 0.163298,-0.02067 0.233578,-0.05168 0.12609,-0.05374 0.12609,-0.167432 0,-0.138492 -0.09715,-0.190169 -0.09508,-0.05374 -0.281119,-0.05374 -0.208773,0 -0.295589,0.103353 -0.06201,0.07648 -0.08268,0.206705 h -0.568441 q 0.0186,-0.295589 0.165365,-0.485758 0.233577,-0.297656 0.802017,-0.297656 0.370003,0 0.657324,0.146761 0.287321,0.146761 0.287321,0.553971 v 1.033528 q 0,0.107487 0.0041,0.260449 0.0062,0.115755 0.03514,0.157096 0.02894,0.04134 0.08682,0.06821 v 0.08682 h -0.640787 q -0.02687,-0.06821 -0.03721,-0.128157 -0.01034,-0.05995 -0.01654,-0.136426 -0.121957,0.132292 -0.28112,0.225309 -0.190169,0.109554 -0.429948,0.109554 -0.305924,0 -0.506428,-0.173633 -0.198437,-0.175699 -0.198437,-0.496093 0,-0.415478 0.320393,-0.601513 0.1757,-0.101286 0.516764,-0.144694 z m 0.03101,-0.942577 z" />
      <path
         id="path1524"
         style="font-style:normal;font-variant:normal;font-weight:bold;font-stretch:normal;font-size:4.23333px;font-family:Helvetica;-inkscape-font-specification:'Helvetica Bold';fill:#ffffff;stroke-width:0.264583"
         d="m 27.909831,18.718255 v -0.419612 h 0.314192 v -0.628385 h 0.58291 v 0.628385 h 0.365869 v 0.419612 h -0.365869 v 1.190624 q 0,0.138493 0.03514,0.173633 0.03514,0.03307 0.214974,0.03307 0.02687,0 0.05581,0 0.03101,-0.0021 0.05994,-0.0041 v 0.440283 l -0.279053,0.01034 q -0.417545,0.01447 -0.570507,-0.144694 -0.09922,-0.101286 -0.09922,-0.312125 v -1.386995 z" />
      <path
         id="path1526"
         style="font-style:normal;font-variant:normal;font-weight:bold;font-stretch:normal;font-size:4.23333px;font-family:Helvetica;-inkscape-font-specification:'Helvetica Bold';fill:#ffffff;stroke-width:0.264583"
         d="m 29.37744,20.913468 h 0.479557 V 17.876964 H 29.37744 v -0.42168 h 1.037662 v 3.890199 H 29.37744 Z" />
      <path
         id="path1528"
         style="font-style:normal;font-variant:normal;font-weight:bold;font-stretch:normal;font-size:4.23333px;font-family:Helvetica;-inkscape-font-specification:'Helvetica Bold';fill:#ffffff;stroke-width:0.264583"
         d="m 34.660834,18.228363 q 0.148828,0 0.293522,0.05788 0.144694,0.05788 0.262516,0.202571 0.09508,0.117822 0.128158,0.289388 0.02067,0.113688 0.02067,0.332796 l -0.0041,1.420067 h -0.60358 v -1.434536 q 0,-0.128158 -0.04134,-0.21084 -0.07855,-0.157096 -0.289388,-0.157096 -0.243913,0 -0.33693,0.202571 -0.04754,0.107487 -0.04754,0.258382 v 1.341519 H 33.44954 v -1.341519 q 0,-0.200504 -0.04134,-0.291455 -0.07441,-0.163297 -0.291455,-0.163297 -0.252181,0 -0.338997,0.163297 -0.04754,0.09302 -0.04754,0.276986 v 1.355988 H 32.132825 V 18.282107 H 32.7054 v 0.328661 q 0.109554,-0.175699 0.206705,-0.250113 0.171566,-0.132292 0.444417,-0.132292 0.258382,0 0.417545,0.113688 0.128158,0.10542 0.194304,0.270785 0.115755,-0.198438 0.28732,-0.291455 0.181901,-0.09302 0.405143,-0.09302 z" />
      <path
         id="path1530"
         style="font-style:normal;font-variant:normal;font-weight:bold;font-stretch:normal;font-size:4.23333px;font-family:Helvetica;-inkscape-font-specification:'Helvetica Bold';fill:#ffffff;stroke-width:0.264583"
         d="m 37.147502,19.435524 q -0.05581,0.03514 -0.113688,0.05788 -0.05581,0.02067 -0.155029,0.03927 l -0.132292,0.02481 q -0.186035,0.03307 -0.26665,0.08061 -0.136425,0.08062 -0.136425,0.250114 0,0.150895 0.08268,0.219108 0.08475,0.06615 0.204638,0.06615 0.190169,0 0.349333,-0.111621 0.16123,-0.111621 0.167431,-0.407209 z m -0.3576,-0.274919 q 0.163297,-0.02067 0.233577,-0.05168 0.12609,-0.05374 0.12609,-0.167432 0,-0.138492 -0.09715,-0.190169 -0.09509,-0.05374 -0.28112,-0.05374 -0.208773,0 -0.295589,0.103353 -0.06201,0.07648 -0.08268,0.206705 h -0.56844 q 0.0186,-0.295589 0.165364,-0.485758 0.233577,-0.297656 0.802018,-0.297656 0.370003,0 0.657323,0.146761 0.287321,0.146761 0.287321,0.553971 v 1.033528 q 0,0.107487 0.0041,0.260449 0.0062,0.115755 0.03514,0.157096 0.02894,0.04134 0.08682,0.06821 v 0.08682 h -0.640787 q -0.02687,-0.06821 -0.03721,-0.128157 -0.01033,-0.05995 -0.01654,-0.136426 -0.121957,0.132292 -0.28112,0.225309 -0.190169,0.109554 -0.429947,0.109554 -0.305925,0 -0.506429,-0.173633 -0.198437,-0.175699 -0.198437,-0.496093 0,-0.415478 0.320393,-0.601513 0.1757,-0.101286 0.516764,-0.144694 z m 0.03101,-0.942577 z" />
      <path
         id="path1532"
         style="font-style:normal;font-variant:normal;font-weight:bold;font-stretch:normal;font-size:4.23333px;font-family:Helvetica;-inkscape-font-specification:'Helvetica Bold';fill:#ffffff;stroke-width:0.264583"
         d="m 39.485342,18.224229 q 0.01654,0 0.02687,0.0021 0.0124,0 0.05168,0.0021 v 0.60358 q -0.05581,-0.0062 -0.09922,-0.0083 -0.04341,-0.0021 -0.07028,-0.0021 -0.355534,0 -0.47749,0.23151 -0.06821,0.130225 -0.06821,0.401009 v 1.076936 h -0.593245 v -2.25309 h 0.562239 v 0.39274 q 0.136426,-0.225309 0.237711,-0.307991 0.165365,-0.138493 0.429948,-0.138493 z" />
      <path
         id="path1534"
         style="font-style:normal;font-variant:normal;font-weight:bold;font-stretch:normal;font-size:4.23333px;font-family:Helvetica;-inkscape-font-specification:'Helvetica Bold';fill:#ffffff;stroke-width:0.264583"
         d="m 41.252675,19.086191 q -0.01654,-0.12609 -0.08475,-0.227376 -0.09922,-0.136426 -0.307991,-0.136426 -0.297656,0 -0.40721,0.295589 -0.05788,0.157097 -0.05788,0.417546 0,0.248046 0.05788,0.398941 0.10542,0.28112 0.396875,0.28112 0.206705,0 0.293522,-0.111621 0.08682,-0.111621 0.105419,-0.289388 h 0.601514 q -0.02067,0.268717 -0.194304,0.508496 -0.276985,0.386539 -0.820621,0.386539 -0.543635,0 -0.79995,-0.32246 -0.256315,-0.322461 -0.256315,-0.837158 0,-0.580843 0.283187,-0.903303 0.283186,-0.322461 0.781347,-0.322461 0.423746,0 0.692463,0.190169 0.270784,0.190169 0.320394,0.671793 z m -0.398942,-0.868163 z" />
      <path
         id="path1536"
         style="font-style:normal;font-variant:normal;font-weight:bold;font-stretch:normal;font-size:4.23333px;font-family:Helvetica;-inkscape-font-specification:'Helvetica Bold';fill:#ffffff;stroke-width:0.264583"
         d="m 43.274255,20.115585 q 0.258382,0 0.396875,-0.183968 0.138492,-0.183968 0.138492,-0.522965 0,-0.338997 -0.138492,-0.520898 -0.138493,-0.183968 -0.396875,-0.183968 -0.258382,0 -0.398942,0.183968 -0.138493,0.181901 -0.138493,0.520898 0,0.338997 0.138493,0.522965 0.14056,0.183968 0.398942,0.183968 z m 1.153417,-0.706933 q 0,0.496093 -0.285254,0.84956 -0.285253,0.351399 -0.866096,0.351399 -0.580843,0 -0.866096,-0.351399 -0.285254,-0.353467 -0.285254,-0.84956 0,-0.487825 0.285254,-0.845426 0.285253,-0.3576 0.866096,-0.3576 0.580843,0 0.866096,0.3576 0.285254,0.357601 0.285254,0.845426 z m -1.15135,-1.190624 z" />
      <path
         id="path1538"
         style="font-style:normal;font-variant:normal;font-weight:bold;font-stretch:normal;font-size:4.23333px;font-family:Helvetica;-inkscape-font-specification:'Helvetica Bold';fill:#ffffff;stroke-width:0.264583"
         d="m 46.09992,18.224229 q 0.349332,0 0.570507,0.183968 0.223242,0.181901 0.223242,0.605647 v 1.517219 h -0.60358 v -1.370458 q 0,-0.177767 -0.04754,-0.272851 -0.08682,-0.173633 -0.330729,-0.173633 -0.299723,0 -0.411344,0.254248 -0.05788,0.134359 -0.05788,0.343131 v 1.219563 h -0.587044 v -2.248956 h 0.568441 v 0.328661 q 0.113688,-0.173632 0.214973,-0.250113 0.181901,-0.136426 0.460954,-0.136426 z m -0.217041,-0.0062 z" />
      <path
         id="path1540"
         style="font-style:normal;font-variant:normal;font-weight:bold;font-stretch:normal;font-size:4.23333px;font-family:Helvetica;-inkscape-font-specification:'Helvetica Bold';fill:#ffffff;stroke-width:0.264583"
         d="m 48.406754,20.047372 q 0.206705,0 0.349332,-0.155029 0.142627,-0.157096 0.142627,-0.49816 0,-0.320394 -0.136426,-0.487826 -0.134358,-0.167431 -0.361734,-0.167431 -0.310059,0 -0.427881,0.291455 -0.06201,0.155029 -0.06201,0.382405 0,0.19637 0.06615,0.349332 0.11989,0.285254 0.429948,0.285254 z m -0.146761,-1.823143 q 0.169499,0 0.295589,0.05168 0.214974,0.08888 0.347265,0.326595 v -0.324527 h 0.572575 v 2.137335 q 0,0.436149 -0.146761,0.657324 -0.252181,0.380338 -0.967382,0.380338 -0.432015,0 -0.704866,-0.169499 -0.272852,-0.169498 -0.30179,-0.506428 h 0.640787 q 0.02481,0.103352 0.08062,0.148828 0.09508,0.08061 0.320394,0.08061 0.318326,0 0.425813,-0.212907 0.07028,-0.136426 0.07028,-0.458886 v -0.144694 q -0.08475,0.144694 -0.181901,0.217041 -0.1757,0.134358 -0.456819,0.134358 -0.434082,0 -0.694531,-0.303857 -0.258382,-0.305924 -0.258382,-0.826822 0,-0.502295 0.250114,-0.843359 0.250114,-0.343131 0.709,-0.343131 z m 0.188102,-0.0062 z" />
      <path
         id="path1542"
         style="font-style:normal;font-variant:normal;font-weight:bold;font-stretch:normal;font-size:4.23333px;font-family:Helvetica;-inkscape-font-specification:'Helvetica Bold';fill:#ffffff;stroke-width:0.264583"
         d="m 51.191076,17.455284 h 1.037662 v 0.429948 h -0.479557 v 3.028236 h 0.479557 v 0.432015 h -1.037662 z" />
      <path
         id="path1544"
         style="font-style:normal;font-variant:normal;font-weight:bold;font-stretch:normal;font-size:4.23333px;font-family:Helvetica;-inkscape-font-specification:'Helvetica Bold';fill:#ffffff;stroke-width:0.264583"
         d="m 53.446235,18.224229 q 0.204639,0 0.363802,0.09095 0.159163,0.08888 0.258382,0.248046 v -1.074869 h 0.597379 v 3.042706 h -0.572574 v -0.312125 q -0.126091,0.200504 -0.287321,0.291455 -0.16123,0.09095 -0.401009,0.09095 -0.394807,0 -0.665592,-0.318327 -0.268717,-0.320393 -0.268717,-0.820621 0,-0.576708 0.264583,-0.907437 0.26665,-0.330729 0.711067,-0.330729 z m 0.128158,1.881021 q 0.250114,0 0.380338,-0.186035 0.130225,-0.186035 0.130225,-0.481624 0,-0.413411 -0.208773,-0.591178 -0.128158,-0.107487 -0.297656,-0.107487 -0.258382,0 -0.380338,0.19637 -0.11989,0.194303 -0.11989,0.483691 0,0.312126 0.121957,0.500228 0.124023,0.186035 0.374137,0.186035 z" />
      <path
         id="path1546"
         style="font-style:normal;font-variant:normal;font-weight:bold;font-stretch:normal;font-size:4.23333px;font-family:Helvetica;-inkscape-font-specification:'Helvetica Bold';fill:#ffffff;stroke-width:0.264583"
         d="m 56.214025,20.115585 q 0.258382,0 0.396874,-0.183968 0.138493,-0.183968 0.138493,-0.522965 0,-0.338997 -0.138493,-0.520898 -0.138492,-0.183968 -0.396874,-0.183968 -0.258382,0 -0.398942,0.183968 -0.138493,0.181901 -0.138493,0.520898 0,0.338997 0.138493,0.522965 0.14056,0.183968 0.398942,0.183968 z m 1.153417,-0.706933 q 0,0.496093 -0.285254,0.84956 -0.285254,0.351399 -0.866096,0.351399 -0.580843,0 -0.866097,-0.351399 -0.285253,-0.353467 -0.285253,-0.84956 0,-0.487825 0.285253,-0.845426 0.285254,-0.3576 0.866097,-0.3576 0.580842,0 0.866096,0.3576 0.285254,0.357601 0.285254,0.845426 z m -1.15135,-1.190624 z" />
      <path
         id="path1548"
         style="font-style:normal;font-variant:normal;font-weight:bold;font-stretch:normal;font-size:4.23333px;font-family:Helvetica;-inkscape-font-specification:'Helvetica Bold';fill:#ffffff;stroke-width:0.264583"
         d="m 57.559676,18.718255 v -0.419612 h 0.314192 v -0.628385 h 0.58291 v 0.628385 h 0.365869 v 0.419612 h -0.365869 v 1.190624 q 0,0.138493 0.03514,0.173633 0.03514,0.03307 0.214974,0.03307 0.02687,0 0.05581,0 0.03101,-0.0021 0.05995,-0.0041 v 0.440283 l -0.279053,0.01034 q -0.417545,0.01447 -0.570507,-0.144694 -0.09922,-0.101286 -0.09922,-0.312125 v -1.386995 z" />
      <path
         id="path1550"
         style="font-style:normal;font-variant:normal;font-weight:bold;font-stretch:normal;font-size:4.23333px;font-family:Helvetica;-inkscape-font-specification:'Helvetica Bold';fill:#ffffff;stroke-width:0.264583"
         d="m 59.027284,20.913468 h 0.479556 v -3.036504 h -0.479556 v -0.42168 h 1.037661 v 3.890199 h -1.037661 z" />
      <path
         id="path1552"
         style="font-style:normal;font-variant:normal;font-weight:bold;font-stretch:normal;font-size:4.23333px;font-family:Helvetica;-inkscape-font-specification:'Helvetica Bold';fill:#ffffff;stroke-width:0.264583"
         d="m 62.803796,20.115585 q 0.258382,0 0.396875,-0.183968 0.138492,-0.183968 0.138492,-0.522965 0,-0.338997 -0.138492,-0.520898 -0.138493,-0.183968 -0.396875,-0.183968 -0.258382,0 -0.398942,0.183968 -0.138493,0.181901 -0.138493,0.520898 0,0.338997 0.138493,0.522965 0.14056,0.183968 0.398942,0.183968 z m 1.153417,-0.706933 q 0,0.496093 -0.285254,0.84956 -0.285253,0.351399 -0.866096,0.351399 -0.580843,0 -0.866096,-0.351399 -0.285254,-0.353467 -0.285254,-0.84956 0,-0.487825 0.285254,-0.845426 0.285253,-0.3576 0.866096,-0.3576 0.580843,0 0.866096,0.3576 0.285254,0.357601 0.285254,0.845426 z m -1.15135,-1.190624 z" />
      <path
         id="path1554"
         style="font-style:normal;font-variant:normal;font-weight:bold;font-stretch:normal;font-size:4.23333px;font-family:Helvetica;-inkscape-font-specification:'Helvetica Bold';fill:#ffffff;stroke-width:0.264583"
         d="m 65.604658,18.224229 q 0.01654,0 0.02687,0.0021 0.0124,0 0.05168,0.0021 v 0.60358 q -0.05581,-0.0062 -0.09922,-0.0083 -0.04341,-0.0021 -0.07028,-0.0021 -0.355534,0 -0.47749,0.23151 -0.06821,0.130225 -0.06821,0.401009 v 1.076936 H 64.37476 v -2.25309 h 0.562239 v 0.39274 q 0.136426,-0.225309 0.237712,-0.307991 0.165364,-0.138493 0.429947,-0.138494 z" />
      <path
         id="path1556"
         style="font-style:normal;font-variant:normal;font-weight:bold;font-stretch:normal;font-size:4.23333px;font-family:Helvetica;-inkscape-font-specification:'Helvetica Bold';fill:#ffffff;stroke-width:0.264583"
         d="m 66.993718,20.047372 q 0.206705,0 0.349332,-0.155029 0.142627,-0.157096 0.142627,-0.49816 0,-0.320394 -0.136426,-0.487826 -0.134359,-0.167431 -0.361735,-0.167431 -0.310058,0 -0.42788,0.291455 -0.06201,0.155029 -0.06201,0.382405 0,0.19637 0.06615,0.349332 0.119889,0.285254 0.429948,0.285254 z m -0.146761,-1.823143 q 0.169498,0 0.295589,0.05168 0.214973,0.08888 0.347265,0.326595 v -0.324527 h 0.572574 v 2.137335 q 0,0.436149 -0.146761,0.657324 -0.25218,0.380338 -0.967382,0.380338 -0.432014,0 -0.704866,-0.169499 -0.272851,-0.169498 -0.30179,-0.506428 h 0.640787 q 0.02481,0.103352 0.08062,0.148828 0.09508,0.08061 0.320393,0.08061 0.318327,0 0.425814,-0.212907 0.07028,-0.136426 0.07028,-0.458886 v -0.144694 q -0.08475,0.144694 -0.181901,0.217041 -0.1757,0.134358 -0.45682,0.134358 -0.434081,0 -0.69453,-0.303857 -0.258382,-0.305924 -0.258382,-0.826822 0,-0.502295 0.250114,-0.843359 0.250113,-0.343131 0.709,-0.343131 z m 0.188102,-0.0062 z" />
    </g>
  </g>
</svg>
