<?xml version="1.0" encoding="UTF-8" standalone="no"?>
<svg
   xmlns:dc="http://purl.org/dc/elements/1.1/"
   xmlns:cc="http://creativecommons.org/ns#"
   xmlns:rdf="http://www.w3.org/1999/02/22-rdf-syntax-ns#"
   xmlns:svg="http://www.w3.org/2000/svg"
   xmlns="http://www.w3.org/2000/svg"
   id="svg945"
   version="1.1"
   viewBox="0 0 50.413185 3.6835001"
   height="3.6835001mm"
   width="50.413185mm">
  <defs
     id="defs939" />
  <metadata
     id="metadata942">
    <rdf:RDF>
      <cc:Work
         rdf:about="">
        <dc:format>image/svg+xml</dc:format>
        <dc:type
           rdf:resource="http://purl.org/dc/dcmitype/StillImage" />
        <dc:title></dc:title>
      </cc:Work>
    </rdf:RDF>
  </metadata>
  <g
     transform="translate(-13.044243,-17.692646)"
     id="layer1">
    <g
       style="font-style:normal;font-weight:normal;font-size:3.88056px;line-height:1.25;font-family:sans-serif;fill:#ffffff;fill-opacity:1;stroke:none;stroke-width:0.264583"
       id="text1510"
       aria-label="">
      <path
         id="path1577"
         style="font-style:normal;font-variant:normal;font-weight:bold;font-stretch:normal;font-size:3.88056px;font-family:Helvetica;-inkscape-font-specification:'Helvetica Bold';fill:#ffffff;stroke-width:0.264583"
         d="m 15.361603,18.420251 q 0.136426,0 0.269062,0.05305 0.132636,0.05306 0.24064,0.185691 0.08716,0.108004 0.117478,0.265273 0.01895,0.104214 0.01895,0.305063 l -0.0038,1.301731 H 15.45065 v -1.314994 q 0,-0.117478 -0.0379,-0.19327 -0.072,-0.144006 -0.265272,-0.144006 -0.223587,0 -0.308853,0.185691 -0.04358,0.09853 -0.04358,0.236851 v 1.229728 h -0.543809 v -1.229728 q 0,-0.183796 -0.0379,-0.267168 -0.06821,-0.149689 -0.267167,-0.149689 -0.231167,0 -0.310748,0.149689 -0.04358,0.08527 -0.04358,0.253904 v 1.242992 h -0.547598 v -2.061547 h 0.52486 v 0.301274 q 0.100425,-0.161059 0.189481,-0.229272 0.157269,-0.121267 0.407383,-0.121267 0.236851,0 0.38275,0.104214 0.117478,0.09663 0.178112,0.248219 0.106109,-0.181901 0.263378,-0.267167 0.166743,-0.08527 0.371382,-0.08527 z" />
      <path
         id="path1579"
         style="font-style:normal;font-variant:normal;font-weight:bold;font-stretch:normal;font-size:3.88056px;font-family:Helvetica;-inkscape-font-specification:'Helvetica Bold';fill:#ffffff;stroke-width:0.264583"
         d="m 17.641053,19.526817 q -0.05116,0.03221 -0.104215,0.05305 -0.05116,0.01895 -0.14211,0.036 l -0.121267,0.02274 q -0.170533,0.03032 -0.24443,0.0739 -0.125057,0.0739 -0.125057,0.229272 0,0.138321 0.07579,0.200849 0.07769,0.06063 0.187586,0.06063 0.174322,0 0.320222,-0.10232 0.147794,-0.102319 0.153479,-0.373276 z m -0.327802,-0.252009 q 0.14969,-0.01895 0.214113,-0.04737 0.115583,-0.04926 0.115583,-0.153479 0,-0.126952 -0.08905,-0.174322 -0.08716,-0.04927 -0.257694,-0.04927 -0.191375,0 -0.270957,0.09474 -0.05684,0.07011 -0.07579,0.18948 h -0.521071 q 0.01705,-0.270957 0.151584,-0.445279 0.214113,-0.272852 0.735184,-0.272852 0.33917,0 0.602548,0.134531 0.263378,0.134531 0.263378,0.507808 v 0.947402 q 0,0.09853 0.0038,0.238746 0.0057,0.106109 0.03221,0.144005 0.02653,0.0379 0.07958,0.06253 v 0.07958 H 17.70928 q -0.02463,-0.06253 -0.03411,-0.117478 -0.0095,-0.05495 -0.01516,-0.125057 -0.111794,0.121268 -0.257694,0.206534 -0.174322,0.100424 -0.394119,0.100424 -0.280431,0 -0.464227,-0.159163 -0.181901,-0.161059 -0.181901,-0.454753 0,-0.380856 0.293694,-0.551388 0.161059,-0.09285 0.473701,-0.132637 z m 0.02842,-0.864031 z" />
      <path
         id="path1581"
         style="font-style:normal;font-variant:normal;font-weight:bold;font-stretch:normal;font-size:3.88056px;font-family:Helvetica;-inkscape-font-specification:'Helvetica Bold';fill:#ffffff;stroke-width:0.264583"
         d="m 19.784077,18.416461 q 0.01516,0 0.02463,0.0019 0.01137,0 0.04737,0.0019 v 0.553283 q -0.05116,-0.0057 -0.09095,-0.0076 -0.03979,-0.0019 -0.06442,-0.0019 -0.325906,0 -0.4377,0.212218 -0.06253,0.119372 -0.06253,0.367592 v 0.987193 H 18.656668 V 18.46571 h 0.515387 v 0.360013 q 0.125057,-0.206534 0.217902,-0.282326 0.151585,-0.126952 0.39412,-0.126952 z" />
      <path
         id="path1583"
         style="font-style:normal;font-variant:normal;font-weight:bold;font-stretch:normal;font-size:3.88056px;font-family:Helvetica;-inkscape-font-specification:'Helvetica Bold';fill:#ffffff;stroke-width:0.264583"
         d="m 21.404135,19.206595 q -0.01516,-0.115583 -0.07769,-0.208429 -0.09095,-0.125057 -0.282326,-0.125057 -0.272852,0 -0.373277,0.270957 -0.05305,0.144005 -0.05305,0.382751 0,0.227376 0.05305,0.365697 0.09663,0.257693 0.363803,0.257693 0.18948,0 0.269062,-0.102319 0.07958,-0.10232 0.09664,-0.265273 h 0.551388 q -0.01895,0.246325 -0.178112,0.466122 -0.253903,0.354329 -0.752237,0.354329 -0.498334,0 -0.733289,-0.29559 -0.234956,-0.295589 -0.234956,-0.767396 0,-0.53244 0.259588,-0.828029 0.259588,-0.29559 0.716236,-0.29559 0.388435,0 0.63476,0.174322 0.248219,0.174322 0.293695,0.615812 z m -0.365698,-0.795818 z" />
      <path
         id="path1585"
         style="font-style:normal;font-variant:normal;font-weight:bold;font-stretch:normal;font-size:3.88056px;font-family:Helvetica;-inkscape-font-specification:'Helvetica Bold';fill:#ffffff;stroke-width:0.264583"
         d="m 23.545264,18.442988 q 0.149689,-0.348644 0.4377,-0.750342 h 0.407383 l -0.115584,0.212218 q -0.238745,0.4377 -0.33159,0.917085 -0.06063,0.314538 -0.06063,0.68592 0,0.57981 0.168638,1.066775 0.09853,0.28801 0.348644,0.738973 H 24.000021 L 23.86549,21.129821 q -0.130742,-0.166742 -0.278537,-0.496438 -0.263377,-0.589285 -0.263377,-1.159621 0,-0.519176 0.221692,-1.030774 z" />
      <path
         id="path1587"
         style="font-style:normal;font-variant:normal;font-weight:bold;font-stretch:normal;font-size:3.88056px;font-family:Helvetica;-inkscape-font-specification:'Helvetica Bold';fill:#ffffff;stroke-width:0.264583"
         d="m 25.841768,19.526817 q -0.05116,0.03221 -0.104215,0.05305 -0.05116,0.01895 -0.14211,0.036 l -0.121267,0.02274 q -0.170533,0.03032 -0.24443,0.0739 -0.125057,0.0739 -0.125057,0.229272 0,0.138321 0.07579,0.200849 0.07769,0.06063 0.187586,0.06063 0.174322,0 0.320222,-0.10232 0.147794,-0.102319 0.153479,-0.373276 z m -0.327801,-0.252009 q 0.149689,-0.01895 0.214112,-0.04737 0.115584,-0.04926 0.115584,-0.153479 0,-0.126952 -0.08906,-0.174322 -0.08716,-0.04927 -0.257694,-0.04927 -0.191375,0 -0.270957,0.09474 -0.05684,0.07011 -0.07579,0.18948 h -0.521071 q 0.01705,-0.270957 0.151584,-0.445279 0.214113,-0.272852 0.735184,-0.272852 0.33917,0 0.602548,0.134531 0.263378,0.134531 0.263378,0.507808 v 0.947402 q 0,0.09853 0.0038,0.238746 0.0057,0.106109 0.03221,0.144005 0.02653,0.0379 0.07958,0.06253 v 0.07958 h -0.587389 q -0.02463,-0.06253 -0.03411,-0.117478 -0.0095,-0.05495 -0.01516,-0.125057 -0.111794,0.121268 -0.257694,0.206534 -0.174322,0.100424 -0.394119,0.100424 -0.280431,0 -0.464227,-0.159163 -0.181901,-0.161059 -0.181901,-0.454753 0,-0.380856 0.293694,-0.551388 0.161059,-0.09285 0.473701,-0.132637 z m 0.02842,-0.864031 z" />
      <path
         id="path1589"
         style="font-style:normal;font-variant:normal;font-weight:bold;font-stretch:normal;font-size:3.88056px;font-family:Helvetica;-inkscape-font-specification:'Helvetica Bold';fill:#ffffff;stroke-width:0.264583"
         d="m 26.650849,18.869319 v -0.384645 h 0.28801 v -0.576021 h 0.534335 v 0.576021 h 0.335381 v 0.384645 h -0.335381 v 1.091408 q 0,0.126952 0.03221,0.159163 0.03221,0.03032 0.19706,0.03032 0.02463,0 0.05116,0 0.02842,-0.0019 0.05495,-0.0038 v 0.403593 l -0.255799,0.0095 q -0.38275,0.01326 -0.522966,-0.132636 -0.09095,-0.09285 -0.09095,-0.286116 v -1.271414 z" />
      <path
         id="path1591"
         style="font-style:normal;font-variant:normal;font-weight:bold;font-stretch:normal;font-size:3.88056px;font-family:Helvetica;-inkscape-font-specification:'Helvetica Bold';fill:#ffffff;stroke-width:0.264583"
         d="m 28.363752,17.692646 q 0.288011,0.401698 0.4377,0.750342 0.221692,0.511598 0.221692,1.030774 0,0.570336 -0.263377,1.159621 -0.147795,0.329696 -0.278537,0.496438 l -0.134531,0.183796 h -0.399804 q 0.250115,-0.450963 0.348644,-0.738973 0.168638,-0.486965 0.168638,-1.066775 0,-0.371382 -0.06063,-0.68592 -0.09285,-0.479385 -0.331591,-0.917085 l -0.115583,-0.212218 z" />
      <path
         id="path1593"
         style="font-style:normal;font-variant:normal;font-weight:bold;font-stretch:normal;font-size:3.88056px;font-family:Helvetica;-inkscape-font-specification:'Helvetica Bold';fill:#ffffff;stroke-width:0.264583"
         d="m 32.839281,18.420251 q 0.136426,0 0.269062,0.05305 0.132637,0.05306 0.24064,0.185691 0.08716,0.108004 0.117478,0.265273 0.01895,0.104214 0.01895,0.305063 l -0.0038,1.301731 h -0.553283 v -1.314994 q 0,-0.117478 -0.0379,-0.19327 -0.072,-0.144006 -0.265273,-0.144006 -0.223587,0 -0.308853,0.185691 -0.04358,0.09853 -0.04358,0.236851 v 1.229728 h -0.543809 v -1.229728 q 0,-0.183796 -0.0379,-0.267168 -0.06821,-0.149689 -0.267167,-0.149689 -0.231166,0 -0.310748,0.149689 -0.04358,0.08527 -0.04358,0.253904 v 1.242992 H 30.52192 v -2.061547 h 0.524861 v 0.301274 q 0.100424,-0.161059 0.18948,-0.229272 0.157269,-0.121267 0.407383,-0.121267 0.236851,0 0.382751,0.104214 0.117478,0.09663 0.178111,0.248219 0.106109,-0.181901 0.263378,-0.267167 0.166743,-0.08527 0.371382,-0.08527 z" />
      <path
         id="path1595"
         style="font-style:normal;font-variant:normal;font-weight:bold;font-stretch:normal;font-size:3.88056px;font-family:Helvetica;-inkscape-font-specification:'Helvetica Bold';fill:#ffffff;stroke-width:0.264583"
         d="m 35.11873,19.526817 q -0.05116,0.03221 -0.104214,0.05305 -0.05116,0.01895 -0.142111,0.036 l -0.121267,0.02274 q -0.170532,0.03032 -0.24443,0.0739 -0.125057,0.0739 -0.125057,0.229272 0,0.138321 0.07579,0.200849 0.07769,0.06063 0.187586,0.06063 0.174322,0 0.320222,-0.10232 0.147795,-0.102319 0.153479,-0.373276 z m -0.327801,-0.252009 q 0.149689,-0.01895 0.214113,-0.04737 0.115583,-0.04926 0.115583,-0.153479 0,-0.126952 -0.08906,-0.174322 -0.08716,-0.04927 -0.257693,-0.04927 -0.191376,0 -0.270957,0.09474 -0.05684,0.07011 -0.07579,0.18948 h -0.521071 q 0.01705,-0.270957 0.151584,-0.445279 0.214113,-0.272852 0.735185,-0.272852 0.33917,0 0.602548,0.134531 0.263377,0.134531 0.263377,0.507808 v 0.947402 q 0,0.09853 0.0038,0.238746 0.0057,0.106109 0.03221,0.144005 0.02653,0.0379 0.07958,0.06253 v 0.07958 h -0.587389 q -0.02463,-0.06253 -0.03411,-0.117478 -0.0095,-0.05495 -0.01516,-0.125057 -0.111793,0.121268 -0.257693,0.206534 -0.174322,0.100424 -0.39412,0.100424 -0.280431,0 -0.464227,-0.159163 -0.181901,-0.161059 -0.181901,-0.454753 0,-0.380856 0.293695,-0.551388 0.161058,-0.09285 0.473701,-0.132637 z m 0.02842,-0.864031 z" />
      <path
         id="path1597"
         style="font-style:normal;font-variant:normal;font-weight:bold;font-stretch:normal;font-size:3.88056px;font-family:Helvetica;-inkscape-font-specification:'Helvetica Bold';fill:#ffffff;stroke-width:0.264583"
         d="m 37.261755,18.416461 q 0.01516,0 0.02463,0.0019 0.01137,0 0.04737,0.0019 v 0.553283 q -0.05116,-0.0057 -0.09095,-0.0076 -0.03979,-0.0019 -0.06442,-0.0019 -0.325906,0 -0.437699,0.212218 -0.06253,0.119372 -0.06253,0.367592 v 0.987193 H 36.134347 V 18.46571 h 0.515387 v 0.360013 q 0.125057,-0.206534 0.217902,-0.282326 0.151585,-0.126952 0.39412,-0.126952 z" />
      <path
         id="path1599"
         style="font-style:normal;font-variant:normal;font-weight:bold;font-stretch:normal;font-size:3.88056px;font-family:Helvetica;-inkscape-font-specification:'Helvetica Bold';fill:#ffffff;stroke-width:0.264583"
         d="m 38.881813,19.206595 q -0.01516,-0.115583 -0.07769,-0.208429 -0.09095,-0.125057 -0.282326,-0.125057 -0.272852,0 -0.373277,0.270957 -0.05305,0.144005 -0.05305,0.382751 0,0.227376 0.05305,0.365697 0.09664,0.257693 0.363803,0.257693 0.18948,0 0.269062,-0.102319 0.07958,-0.10232 0.09663,-0.265273 h 0.551388 q -0.01895,0.246325 -0.178111,0.466122 -0.253904,0.354329 -0.752238,0.354329 -0.498333,0 -0.733289,-0.29559 -0.234956,-0.295589 -0.234956,-0.767396 0,-0.53244 0.259588,-0.828029 0.259589,-0.29559 0.716237,-0.29559 0.388434,0 0.634759,0.174322 0.24822,0.174322 0.293695,0.615812 z m -0.365697,-0.795818 z" />
      <path
         id="path1601"
         style="font-style:normal;font-variant:normal;font-weight:bold;font-stretch:normal;font-size:3.88056px;font-family:Helvetica;-inkscape-font-specification:'Helvetica Bold';fill:#ffffff;stroke-width:0.264583"
         d="m 40.734933,20.150207 q 0.23685,0 0.363802,-0.168637 0.126952,-0.168638 0.126952,-0.479386 0,-0.310748 -0.126952,-0.477491 -0.126952,-0.168637 -0.363802,-0.168637 -0.236851,0 -0.365698,0.168637 -0.126952,0.166743 -0.126952,0.477491 0,0.310748 0.126952,0.479386 0.128847,0.168637 0.365698,0.168637 z m 1.057301,-0.648023 q 0,0.454753 -0.261483,0.778765 -0.261484,0.322117 -0.793924,0.322117 -0.53244,0 -0.793923,-0.322117 -0.261483,-0.324012 -0.261483,-0.778765 0,-0.447174 0.261483,-0.774975 0.261483,-0.327801 0.793923,-0.327801 0.53244,0 0.793924,0.327801 0.261483,0.327801 0.261483,0.774975 z m -1.055407,-1.091407 z" />
      <path
         id="path1603"
         style="font-style:normal;font-variant:normal;font-weight:bold;font-stretch:normal;font-size:3.88056px;font-family:Helvetica;-inkscape-font-specification:'Helvetica Bold';fill:#ffffff;stroke-width:0.264583"
         d="m 43.32513,18.416461 q 0.320222,0 0.522967,0.168638 0.204638,0.166743 0.204638,0.555177 v 1.390787 h -0.553283 v -1.256255 q 0,-0.162954 -0.04358,-0.250115 -0.07958,-0.159163 -0.303169,-0.159163 -0.274746,0 -0.377066,0.233061 -0.05305,0.123162 -0.05305,0.314537 v 1.117935 h -0.538125 v -2.061547 h 0.521071 v 0.301274 q 0.104215,-0.159164 0.19706,-0.229272 0.166743,-0.125057 0.422541,-0.125057 z m -0.198954,-0.0057 z" />
      <path
         id="path1605"
         style="font-style:normal;font-variant:normal;font-weight:bold;font-stretch:normal;font-size:3.88056px;font-family:Helvetica;-inkscape-font-specification:'Helvetica Bold';fill:#ffffff;stroke-width:0.264583"
         d="m 45.439732,20.087679 q 0.189481,0 0.320222,-0.142111 0.130742,-0.144005 0.130742,-0.456647 0,-0.293695 -0.125057,-0.447174 -0.123162,-0.15348 -0.331591,-0.15348 -0.284221,0 -0.392225,0.267168 -0.05684,0.14211 -0.05684,0.350539 0,0.180006 0.06063,0.320222 0.109899,0.261483 0.394119,0.261483 z m -0.134531,-1.671218 q 0.155374,0 0.270957,0.04737 0.19706,0.08148 0.318328,0.299379 v -0.297484 h 0.52486 v 1.959228 q 0,0.399804 -0.134531,0.602548 -0.231166,0.348644 -0.886768,0.348644 -0.396014,0 -0.646129,-0.155374 -0.250114,-0.155374 -0.276641,-0.464227 h 0.587389 q 0.02274,0.09474 0.0739,0.136426 0.08716,0.0739 0.293694,0.0739 0.2918,0 0.39033,-0.195165 0.06442,-0.125057 0.06442,-0.420646 v -0.13264 q -0.07769,0.132637 -0.166743,0.198955 -0.161059,0.123162 -0.418752,0.123162 -0.397909,0 -0.636654,-0.278536 -0.236851,-0.280431 -0.236851,-0.757922 0,-0.460438 0.229271,-0.77308 0.229272,-0.314538 0.649918,-0.314538 z m 0.172428,-0.0057 z" />
      <path
         id="path1607"
         style="font-style:normal;font-variant:normal;font-weight:bold;font-stretch:normal;font-size:3.88056px;font-family:Helvetica;-inkscape-font-specification:'Helvetica Bold';fill:#ffffff;stroke-width:0.264583"
         d="m 48.139828,18.442988 q 0.14969,-0.348644 0.4377,-0.750342 h 0.407383 l -0.115583,0.212218 q -0.238745,0.4377 -0.331591,0.917085 -0.06063,0.314538 -0.06063,0.68592 0,0.57981 0.168638,1.066775 0.09853,0.28801 0.348644,0.738973 H 48.594581 L 48.46005,21.129821 q -0.130741,-0.166742 -0.278536,-0.496438 -0.263378,-0.589285 -0.263378,-1.159621 0,-0.519176 0.221692,-1.030774 z" />
      <path
         id="path1609"
         style="font-style:normal;font-variant:normal;font-weight:bold;font-stretch:normal;font-size:3.88056px;font-family:Helvetica;-inkscape-font-specification:'Helvetica Bold';fill:#ffffff;stroke-width:0.264583"
         d="m 50.059266,18.416461 q 0.187586,0 0.333486,0.08337 0.1459,0.08148 0.23685,0.227377 V 17.74191 h 0.547599 v 2.789152 H 50.65234 v -0.286115 q -0.115583,0.183796 -0.263378,0.267167 -0.147795,0.08337 -0.367592,0.08337 -0.361908,0 -0.610127,-0.291799 -0.246325,-0.293695 -0.246325,-0.752238 0,-0.52865 0.242535,-0.831819 0.24443,-0.303169 0.651813,-0.303169 z m 0.117478,1.724272 q 0.229271,0 0.348644,-0.170532 0.119373,-0.170533 0.119373,-0.44149 0,-0.378961 -0.191376,-0.541914 -0.117477,-0.09853 -0.272851,-0.09853 -0.236851,0 -0.348644,0.180007 -0.109899,0.178112 -0.109899,0.443384 0,0.286116 0.111793,0.458543 0.113689,0.170532 0.34296,0.170532 z" />
      <path
         id="path1611"
         style="font-style:normal;font-variant:normal;font-weight:bold;font-stretch:normal;font-size:3.88056px;font-family:Helvetica;-inkscape-font-specification:'Helvetica Bold';fill:#ffffff;stroke-width:0.264583"
         d="m 52.596409,20.150207 q 0.236851,0 0.363803,-0.168637 0.126952,-0.168638 0.126952,-0.479386 0,-0.310748 -0.126952,-0.477491 -0.126952,-0.168637 -0.363803,-0.168637 -0.23685,0 -0.365697,0.168637 -0.126952,0.166743 -0.126952,0.477491 0,0.310748 0.126952,0.479386 0.128847,0.168637 0.365697,0.168637 z m 1.057301,-0.648023 q 0,0.454753 -0.261483,0.778765 -0.261483,0.322117 -0.793923,0.322117 -0.53244,0 -0.793923,-0.322117 -0.261483,-0.324012 -0.261483,-0.778765 0,-0.447174 0.261483,-0.774975 0.261483,-0.327801 0.793923,-0.327801 0.53244,0 0.793923,0.327801 0.261483,0.327801 0.261483,0.774975 z m -1.055406,-1.091407 z" />
      <path
         id="path1613"
         style="font-style:normal;font-variant:normal;font-weight:bold;font-stretch:normal;font-size:3.88056px;font-family:Helvetica;-inkscape-font-specification:'Helvetica Bold';fill:#ffffff;stroke-width:0.264583"
         d="m 53.829927,18.869319 v -0.384645 h 0.288011 v -0.576021 h 0.534334 v 0.576021 h 0.335381 v 0.384645 h -0.335381 v 1.091408 q 0,0.126952 0.03221,0.159163 0.03221,0.03032 0.19706,0.03032 0.02463,0 0.05116,0 0.02842,-0.0019 0.05495,-0.0038 v 0.403593 l -0.255799,0.0095 q -0.38275,0.01326 -0.522966,-0.132636 -0.09095,-0.09285 -0.09095,-0.286116 v -1.271414 z" />
      <path
         id="path1615"
         style="font-style:normal;font-variant:normal;font-weight:bold;font-stretch:normal;font-size:3.88056px;font-family:Helvetica;-inkscape-font-specification:'Helvetica Bold';fill:#ffffff;stroke-width:0.264583"
         d="m 55.542831,17.692646 q 0.288011,0.401698 0.4377,0.750342 0.221692,0.511598 0.221692,1.030774 0,0.570336 -0.263377,1.159621 -0.147795,0.329696 -0.278537,0.496438 l -0.134531,0.183796 h -0.399804 q 0.250115,-0.450963 0.348645,-0.738973 0.168637,-0.486965 0.168637,-1.066775 0,-0.371382 -0.06063,-0.68592 -0.09285,-0.479385 -0.33159,-0.917085 l -0.115584,-0.212218 z" />
      <path
         id="path1617"
         style="font-style:normal;font-variant:normal;font-weight:bold;font-stretch:normal;font-size:3.88056px;font-family:Helvetica;-inkscape-font-specification:'Helvetica Bold';fill:#ffffff;stroke-width:0.264583"
         d="m 58.637047,20.150207 q 0.236851,0 0.363803,-0.168637 0.126952,-0.168638 0.126952,-0.479386 0,-0.310748 -0.126952,-0.477491 -0.126952,-0.168637 -0.363803,-0.168637 -0.23685,0 -0.365697,0.168637 -0.126952,0.166743 -0.126952,0.477491 0,0.310748 0.126952,0.479386 0.128847,0.168637 0.365697,0.168637 z m 1.057301,-0.648023 q 0,0.454753 -0.261483,0.778765 -0.261483,0.322117 -0.793923,0.322117 -0.53244,0 -0.793923,-0.322117 -0.261483,-0.324012 -0.261483,-0.778765 0,-0.447174 0.261483,-0.774975 0.261483,-0.327801 0.793923,-0.327801 0.53244,0 0.793923,0.327801 0.261483,0.327801 0.261483,0.774975 z m -1.055406,-1.091407 z" />
      <path
         id="path1619"
         style="font-style:normal;font-variant:normal;font-weight:bold;font-stretch:normal;font-size:3.88056px;font-family:Helvetica;-inkscape-font-specification:'Helvetica Bold';fill:#ffffff;stroke-width:0.264583"
         d="m 61.204508,18.416461 q 0.01516,0 0.02463,0.0019 0.01137,0 0.04737,0.0019 v 0.553283 q -0.05116,-0.0057 -0.09095,-0.0076 -0.03979,-0.0019 -0.06442,-0.0019 -0.325906,0 -0.4377,0.212218 -0.06253,0.119372 -0.06253,0.367592 v 0.987193 H 60.077099 V 18.46571 h 0.515387 v 0.360013 q 0.125057,-0.206534 0.217902,-0.282326 0.151585,-0.126952 0.39412,-0.126952 z" />
      <path
         id="path1621"
         style="font-style:normal;font-variant:normal;font-weight:bold;font-stretch:normal;font-size:3.88056px;font-family:Helvetica;-inkscape-font-specification:'Helvetica Bold';fill:#ffffff;stroke-width:0.264583"
         d="m 62.477815,20.087679 q 0.18948,0 0.320222,-0.142111 0.130741,-0.144005 0.130741,-0.456647 0,-0.293695 -0.125057,-0.447174 -0.123162,-0.15348 -0.331591,-0.15348 -0.284221,0 -0.392224,0.267168 -0.05685,0.14211 -0.05685,0.350539 0,0.180006 0.06063,0.320222 0.109899,0.261483 0.39412,0.261483 z m -0.134532,-1.671218 q 0.155374,0 0.270957,0.04737 0.19706,0.08148 0.318328,0.299379 v -0.297484 h 0.524861 v 1.959228 q 0,0.399804 -0.134532,0.602548 -0.231166,0.348644 -0.886768,0.348644 -0.396014,0 -0.646129,-0.155374 -0.250114,-0.155374 -0.276641,-0.464227 h 0.587389 q 0.02274,0.09474 0.0739,0.136426 0.08716,0.0739 0.293695,0.0739 0.291799,0 0.390329,-0.195165 0.06442,-0.125057 0.06442,-0.420646 v -0.13264 q -0.07769,0.132637 -0.166743,0.198955 -0.161059,0.123162 -0.418752,0.123162 -0.397909,0 -0.636654,-0.278536 -0.236851,-0.280431 -0.236851,-0.757922 0,-0.460438 0.229271,-0.77308 0.229272,-0.314538 0.649918,-0.314538 z m 0.172428,-0.0057 z" />
    </g>
  </g>
</svg>
